<svg xmlns="http://www.w3.org/2000/svg" viewBox="0 0 800 520" role="img" aria-labelledby="t d">
<title id="t">Operational resilience</title><desc id="d">Resilience rings, critical operations and recovery pathways.</desc>
<defs><linearGradient id="bg" x1="0" y1="0" x2="1" y2="1"><stop stop-color="#0a203b"/><stop offset="1" stop-color="#376fae"/></linearGradient><radialGradient id="g"><stop stop-color="#a7dcff" stop-opacity=".35"/><stop offset="1" stop-color="#a7dcff" stop-opacity="0"/></radialGradient></defs>
<rect width="800" height="520" fill="url(#bg)"/><circle cx="400" cy="260" r="260" fill="url(#g)"/>
<g fill="none" stroke="#c8e9ff"><circle cx="400" cy="260" r="72" stroke-width="4"/><circle cx="400" cy="260" r="132" stroke-width="3" stroke-dasharray="14 10" opacity=".8"/><circle cx="400" cy="260" r="198" stroke-width="2" opacity=".45"/></g>
<g stroke="#79c8ff" stroke-width="4"><path d="M400 62v126M400 332v126M202 260h126M472 260h126M260 120l89 89M451 311l89 89M540 120l-89 89M349 311l-89 89"/></g>
<g fill="#ecf8ff"><circle cx="400" cy="62" r="18"/><circle cx="400" cy="458" r="18"/><circle cx="202" cy="260" r="18"/><circle cx="598" cy="260" r="18"/><circle cx="260" cy="120" r="15"/><circle cx="540" cy="120" r="15"/><circle cx="540" cy="400" r="15"/><circle cx="260" cy="400" r="15"/></g>
<path d="M400 206 452 232v45c0 47-31 81-52 92-21-11-52-45-52-92v-45Z" fill="#f8fcff" fill-opacity=".95"/><path d="m378 273 18 18 32-39" fill="none" stroke="#2f68b0" stroke-width="10" stroke-linecap="round"/>
</svg>