<svg xmlns="http://www.w3.org/2000/svg" viewBox="0 0 800 520" role="img" aria-labelledby="t d">
<title id="t">Cyber governance and controls</title><desc id="d">Abstract shield, control grid and assurance pathways.</desc>
<defs><linearGradient id="bg" x1="0" y1="0" x2="1" y2="1"><stop stop-color="#0b2444"/><stop offset="1" stop-color="#2f68b0"/></linearGradient><radialGradient id="glow"><stop stop-color="#7dc8ff" stop-opacity=".62"/><stop offset="1" stop-color="#7dc8ff" stop-opacity="0"/></radialGradient></defs>
<rect width="800" height="520" fill="url(#bg)"/><circle cx="650" cy="72" r="240" fill="url(#glow)"/>
<g opacity=".18" stroke="#cce8ff"><path d="M0 105h800M0 210h800M0 315h800M0 420h800"/><path d="M110 0v520M270 0v520M430 0v520M590 0v520M750 0v520"/></g>
<path d="M400 92 565 150v112c0 102-67 177-165 211-98-34-165-109-165-211V150Z" fill="#f7fbff" fill-opacity=".11" stroke="#dcedff" stroke-width="4"/>
<path d="m326 274 52 52 103-112" fill="none" stroke="#f5fbff" stroke-width="18" stroke-linecap="round" stroke-linejoin="round"/>
<g fill="#8dd0ff"><circle cx="154" cy="166" r="13"/><circle cx="676" cy="334" r="13"/><circle cx="177" cy="384" r="10"/></g>
<g stroke="#8dd0ff" stroke-width="3" fill="none" opacity=".8"><path d="M167 166h92M552 334h111M187 378l81-49"/></g>
</svg>