<svg xmlns="http://www.w3.org/2000/svg" viewBox="0 0 800 520" role="img" aria-labelledby="t d">
<title id="t">Commercial and SaaS contracts</title><desc id="d">Abstract contract, service metrics and negotiation marks.</desc>
<defs><linearGradient id="bg" x1="0" y1="0" x2="1" y2="1"><stop stop-color="#173a63"/><stop offset="1" stop-color="#6ba5d9"/></linearGradient><linearGradient id="paper" x1="0" y1="0" x2="0" y2="1"><stop stop-color="#ffffff"/><stop offset="1" stop-color="#eaf4fc"/></linearGradient></defs>
<rect width="800" height="520" fill="url(#bg)"/>
<g opacity=".15" fill="#fff"><circle cx="80" cy="72" r="160"/><circle cx="744" cy="470" r="210"/></g>
<path d="M236 74h258l72 72v300H236Z" fill="url(#paper)" stroke="#c9e5f9" stroke-width="4"/>
<path d="M494 74v82h72" fill="#dcefff" stroke="#b3d8f4" stroke-width="4"/>
<g stroke="#4d83b6" stroke-width="8" stroke-linecap="round"><path d="M300 214h196M300 258h156M300 302h181"/></g>
<g fill="#2f68b0"><rect x="300" y="364" width="34" height="38" rx="4"/><rect x="354" y="338" width="34" height="64" rx="4"/><rect x="408" y="310" width="34" height="92" rx="4"/><rect x="462" y="279" width="34" height="123" rx="4"/></g>
<circle cx="584" cy="360" r="68" fill="#0e294a" stroke="#9bd4ff" stroke-width="4"/><path d="m552 360 22 23 46-52" fill="none" stroke="#fff" stroke-width="12" stroke-linecap="round" stroke-linejoin="round"/>
</svg>