<svg xmlns="http://www.w3.org/2000/svg" viewBox="0 0 800 520" role="img" aria-labelledby="t d">
<title id="t">AI governance</title><desc id="d">Abstract AI system, governance checkpoints and balanced controls.</desc>
<defs><linearGradient id="bg" x1="0" y1="1" x2="1" y2="0"><stop stop-color="#102744"/><stop offset="1" stop-color="#557fba"/></linearGradient><linearGradient id="chip" x1="0" y1="0" x2="1" y2="1"><stop stop-color="#eff9ff"/><stop offset="1" stop-color="#bfe1fa"/></linearGradient></defs>
<rect width="800" height="520" fill="url(#bg)"/>
<g stroke="#8ecfff" stroke-width="5" opacity=".7"><path d="M126 90h128v78M674 90H546v78M126 430h128v-78M674 430H546v-78"/></g>
<g fill="#dff3ff"><circle cx="126" cy="90" r="14"/><circle cx="674" cy="90" r="14"/><circle cx="126" cy="430" r="14"/><circle cx="674" cy="430" r="14"/></g>
<rect x="250" y="104" width="300" height="312" rx="42" fill="url(#chip)" stroke="#f7fcff" stroke-width="4"/>
<g stroke="#2f68b0" stroke-width="6" fill="none" stroke-linecap="round"><path d="M321 210c0-44 57-62 86-31 31-29 86-9 86 34 0 23-13 38-31 48 21 14 28 50 7 73-20 23-53 19-71-3-20 21-55 22-75 0-20-22-15-56 7-70-20-12-29-28-29-51Z"/><path d="M398 178v164M333 234h130M346 299h104"/></g>
<g fill="#174a86"><circle cx="398" cy="178" r="10"/><circle cx="333" cy="234" r="10"/><circle cx="463" cy="234" r="10"/><circle cx="346" cy="299" r="10"/><circle cx="450" cy="299" r="10"/><circle cx="398" cy="342" r="10"/></g>
<path d="M592 242h88M636 198v88M596 286h80" stroke="#e5f6ff" stroke-width="8" stroke-linecap="round"/><circle cx="636" cy="242" r="70" fill="none" stroke="#8ed0ff" stroke-width="4"/>
</svg>