<svg xmlns="http://www.w3.org/2000/svg" viewBox="0 0 800 520" fill="none">
  <defs>
    <linearGradient id="bg" x1="0" y1="0" x2="1" y2="1">
      <stop offset="0%" stop-color="#f7fbff"/>
      <stop offset="100%" stop-color="#d5e8fb"/>
    </linearGradient>
    <linearGradient id="fade" x1="0" y1="0" x2="1" y2="0">
      <stop offset="0%" stop-color="#ffffff" stop-opacity="0"/>
      <stop offset="100%" stop-color="#f7fbff" stop-opacity="0.65"/>
    </linearGradient>
  </defs>
  <rect width="800" height="520" fill="url(#bg)"/>
  <circle cx="650" cy="130" r="70" fill="#e6f1fb"/>
  <circle cx="725" cy="305" r="54" fill="#ecf4fc"/>
  <path d="M470 155h215v165H470z" rx="14" stroke="#aac8e6" stroke-width="10"/>
  <path d="M495 185h164" stroke="#b7d1ea" stroke-width="8" stroke-linecap="round"/>
  <path d="M495 220h96" stroke="#b7d1ea" stroke-width="8" stroke-linecap="round"/>
  <path d="M495 255h136" stroke="#b7d1ea" stroke-width="8" stroke-linecap="round"/>
  <path d="M495 290h112" stroke="#b7d1ea" stroke-width="8" stroke-linecap="round"/>
  <path d="M520 350h130l26 70H490l30-70Z" fill="#dfeefa"/>
  <path d="M455 350h218" stroke="#aac8e6" stroke-width="10" stroke-linecap="round"/>
  <circle cx="528" cy="354" r="26" fill="#eef6fd" stroke="#9fc0df" stroke-width="10"/>
  <circle cx="612" cy="354" r="26" fill="#eef6fd" stroke="#9fc0df" stroke-width="10"/>
  <path d="M535 110c0-22 18-40 40-40s40 18 40 40-18 40-40 40-40-18-40-40Z" fill="#cfe3f6"/>
  <path d="M550 168c18-18 51-18 69 0v66h-69z" fill="#dbeaf9"/>
  <path d="M650 116c0-18 14-32 32-32 17 0 31 14 31 32s-14 31-31 31c-18 0-32-14-32-31Z" fill="#d8e9f8"/>
  <path d="M662 168c13-12 37-12 49 0v46h-49z" fill="#e8f2fb"/>
  <rect x="530" y="204" width="82" height="18" rx="9" fill="#8fb5dd" opacity="0.55"/>
  <rect width="800" height="520" fill="url(#fade)"/>
</svg>